<mxfile host="app.diagrams.net" modified="2022-12-08T08:06:01.650Z" agent="5.0 (Windows NT 10.0; Win64; x64) AppleWebKit/537.36 (KHTML, like Gecko) Chrome/108.0.0.0 Safari/537.36" etag="XrlpzaPikIriG3uT8PM6" version="20.6.0" type="github">
  <diagram id="XIbp2joN93HNt7Oiv4dv" name="第 1 页">
    <mxGraphModel dx="2218" dy="675" grid="1" gridSize="10" guides="1" tooltips="1" connect="1" arrows="1" fold="1" page="1" pageScale="1" pageWidth="827" pageHeight="1169" math="0" shadow="0">
      <root>
        <mxCell id="0" />
        <mxCell id="1" parent="0" />
        <mxCell id="nyfDaFpIL5bmZWLFTotg-1" value="坦克大战" style="rounded=0;whiteSpace=wrap;html=1;" vertex="1" parent="1">
          <mxGeometry x="360" y="300" width="120" height="60" as="geometry" />
        </mxCell>
        <mxCell id="nyfDaFpIL5bmZWLFTotg-18" value="游戏菜单界面" style="rounded=0;whiteSpace=wrap;html=1;" vertex="1" parent="1">
          <mxGeometry x="115" y="440" width="120" height="60" as="geometry" />
        </mxCell>
        <mxCell id="nyfDaFpIL5bmZWLFTotg-21" value="游戏运行界面" style="rounded=0;whiteSpace=wrap;html=1;" vertex="1" parent="1">
          <mxGeometry x="660" y="440" width="120" height="60" as="geometry" />
        </mxCell>
        <mxCell id="nyfDaFpIL5bmZWLFTotg-24" value="Menu" style="rounded=0;whiteSpace=wrap;html=1;" vertex="1" parent="1">
          <mxGeometry x="115" y="585" width="120" height="60" as="geometry" />
        </mxCell>
        <mxCell id="nyfDaFpIL5bmZWLFTotg-25" value="" style="endArrow=none;html=1;rounded=0;fillColor=#000000;entryX=0.5;entryY=1;entryDx=0;entryDy=0;" edge="1" parent="1" source="nyfDaFpIL5bmZWLFTotg-24" target="nyfDaFpIL5bmZWLFTotg-18">
          <mxGeometry width="50" height="50" relative="1" as="geometry">
            <mxPoint x="490" y="520" as="sourcePoint" />
            <mxPoint x="540" y="470" as="targetPoint" />
          </mxGeometry>
        </mxCell>
        <mxCell id="nyfDaFpIL5bmZWLFTotg-26" value="" style="endArrow=none;html=1;rounded=0;fillColor=#000000;entryX=0.25;entryY=1;entryDx=0;entryDy=0;exitX=0.5;exitY=0;exitDx=0;exitDy=0;" edge="1" parent="1" source="nyfDaFpIL5bmZWLFTotg-18" target="nyfDaFpIL5bmZWLFTotg-1">
          <mxGeometry width="50" height="50" relative="1" as="geometry">
            <mxPoint x="490" y="520" as="sourcePoint" />
            <mxPoint x="540" y="470" as="targetPoint" />
          </mxGeometry>
        </mxCell>
        <mxCell id="nyfDaFpIL5bmZWLFTotg-27" value="" style="endArrow=none;html=1;rounded=0;fillColor=#000000;entryX=0.75;entryY=1;entryDx=0;entryDy=0;exitX=0.5;exitY=0;exitDx=0;exitDy=0;" edge="1" parent="1" source="nyfDaFpIL5bmZWLFTotg-21" target="nyfDaFpIL5bmZWLFTotg-1">
          <mxGeometry width="50" height="50" relative="1" as="geometry">
            <mxPoint x="490" y="520" as="sourcePoint" />
            <mxPoint x="540" y="470" as="targetPoint" />
          </mxGeometry>
        </mxCell>
        <mxCell id="nyfDaFpIL5bmZWLFTotg-30" value="Image" style="rounded=0;whiteSpace=wrap;html=1;" vertex="1" parent="1">
          <mxGeometry y="740" width="90" height="40" as="geometry" />
        </mxCell>
        <mxCell id="nyfDaFpIL5bmZWLFTotg-31" value="Text" style="rounded=0;whiteSpace=wrap;html=1;" vertex="1" parent="1">
          <mxGeometry x="260" y="740" width="90" height="40" as="geometry" />
        </mxCell>
        <mxCell id="nyfDaFpIL5bmZWLFTotg-32" value="Display Button" style="rounded=0;whiteSpace=wrap;html=1;" vertex="1" parent="1">
          <mxGeometry x="390" y="740" width="90" height="40" as="geometry" />
        </mxCell>
        <mxCell id="nyfDaFpIL5bmZWLFTotg-33" value="Button" style="rounded=0;whiteSpace=wrap;html=1;" vertex="1" parent="1">
          <mxGeometry x="-130" y="740" width="90" height="40" as="geometry" />
        </mxCell>
        <mxCell id="nyfDaFpIL5bmZWLFTotg-34" value="Gif" style="rounded=0;whiteSpace=wrap;html=1;" vertex="1" parent="1">
          <mxGeometry x="130" y="740" width="90" height="40" as="geometry" />
        </mxCell>
        <mxCell id="nyfDaFpIL5bmZWLFTotg-35" value="" style="endArrow=none;html=1;rounded=0;fillColor=#000000;entryX=0;entryY=1;entryDx=0;entryDy=0;exitX=0.428;exitY=0;exitDx=0;exitDy=0;exitPerimeter=0;" edge="1" parent="1" source="nyfDaFpIL5bmZWLFTotg-33" target="nyfDaFpIL5bmZWLFTotg-24">
          <mxGeometry width="50" height="50" relative="1" as="geometry">
            <mxPoint x="490" y="720" as="sourcePoint" />
            <mxPoint x="540" y="670" as="targetPoint" />
          </mxGeometry>
        </mxCell>
        <mxCell id="nyfDaFpIL5bmZWLFTotg-36" value="" style="endArrow=none;html=1;rounded=0;fillColor=#000000;entryX=0.25;entryY=1;entryDx=0;entryDy=0;exitX=0.75;exitY=0;exitDx=0;exitDy=0;" edge="1" parent="1" source="nyfDaFpIL5bmZWLFTotg-30" target="nyfDaFpIL5bmZWLFTotg-24">
          <mxGeometry width="50" height="50" relative="1" as="geometry">
            <mxPoint x="89.99999999999997" y="695" as="sourcePoint" />
            <mxPoint x="176.48" y="645" as="targetPoint" />
          </mxGeometry>
        </mxCell>
        <mxCell id="nyfDaFpIL5bmZWLFTotg-37" value="" style="endArrow=none;html=1;rounded=0;fillColor=#000000;entryX=0.5;entryY=1;entryDx=0;entryDy=0;" edge="1" parent="1" source="nyfDaFpIL5bmZWLFTotg-34" target="nyfDaFpIL5bmZWLFTotg-24">
          <mxGeometry width="50" height="50" relative="1" as="geometry">
            <mxPoint x="48.51999999999998" y="670" as="sourcePoint" />
            <mxPoint x="135" y="620" as="targetPoint" />
          </mxGeometry>
        </mxCell>
        <mxCell id="nyfDaFpIL5bmZWLFTotg-38" value="" style="endArrow=none;html=1;rounded=0;fillColor=#000000;entryX=0.75;entryY=1;entryDx=0;entryDy=0;exitX=0.25;exitY=0;exitDx=0;exitDy=0;" edge="1" parent="1" source="nyfDaFpIL5bmZWLFTotg-31" target="nyfDaFpIL5bmZWLFTotg-24">
          <mxGeometry width="50" height="50" relative="1" as="geometry">
            <mxPoint x="58.51999999999998" y="680" as="sourcePoint" />
            <mxPoint x="145" y="630" as="targetPoint" />
          </mxGeometry>
        </mxCell>
        <mxCell id="nyfDaFpIL5bmZWLFTotg-39" value="" style="endArrow=none;html=1;rounded=0;fillColor=#000000;entryX=1;entryY=1;entryDx=0;entryDy=0;exitX=0.5;exitY=0;exitDx=0;exitDy=0;" edge="1" parent="1" source="nyfDaFpIL5bmZWLFTotg-32" target="nyfDaFpIL5bmZWLFTotg-24">
          <mxGeometry width="50" height="50" relative="1" as="geometry">
            <mxPoint x="68.51999999999998" y="690" as="sourcePoint" />
            <mxPoint x="155" y="640" as="targetPoint" />
          </mxGeometry>
        </mxCell>
      </root>
    </mxGraphModel>
  </diagram>
</mxfile>
